<svg width="1175" height="373" viewBox="0 0 1175 373" fill="none" xmlns="http://www.w3.org/2000/svg">
<path d="M183 27.0001C143.985 26.9481 106.453 41.9498 78.2226 68.8805L85.7714 91.717L104.823 149.404C109.333 150.429 113.502 152.602 116.925 155.714C120.347 158.825 122.907 162.769 124.356 167.162L133.052 193.469C134.831 198.839 134.87 204.634 133.164 210.028C131.459 215.422 128.095 220.14 123.552 223.511L128.317 237.944L180.282 240.867C182.343 237.271 185.554 234.473 189.399 232.925C193.244 231.376 197.498 231.166 201.476 232.329C205.454 233.492 208.925 235.96 211.33 239.336C213.735 242.712 214.934 246.798 214.734 250.938C214.534 255.078 212.946 259.031 210.227 262.158C207.507 265.286 203.814 267.408 199.742 268.182C195.67 268.955 191.456 268.336 187.779 266.423C184.102 264.511 181.175 261.416 179.471 257.638L120.68 254.298H120.556C120.27 254.298 119.984 254.278 119.701 254.24C118.672 254.097 117.693 253.702 116.853 253.09C116.013 252.478 115.337 251.668 114.885 250.732V250.732C114.648 250.246 114.475 249.73 114.374 249.198L107.607 228.736C101.945 228.749 96.4238 226.973 91.8308 223.662C87.2379 220.351 83.8078 215.674 82.0299 210.299L73.341 183.991C71.8892 179.601 71.5973 174.909 72.4936 170.373C73.3899 165.836 75.444 161.609 78.4564 158.1L66.0333 120.619L57.1399 93.6974C40.049 118.857 30.9395 148.585 31.0003 179C31.0003 262.951 99.0494 331 183 331C202.965 331.014 222.737 327.093 241.185 319.459C259.633 311.825 276.395 300.63 290.512 286.512C304.63 272.395 315.825 255.633 323.459 237.185C331.093 218.737 335.014 198.965 335 179C335 95.0493 266.951 27.0001 183 27.0001ZM194.736 156.617C190.779 156.618 186.91 155.446 183.618 153.248C180.327 151.05 177.761 147.926 176.246 144.27C174.73 140.614 174.333 136.591 175.104 132.709C175.875 128.827 177.78 125.262 180.578 122.463C183.376 119.664 186.941 117.757 190.823 116.985C194.704 116.212 198.728 116.608 202.384 118.122C206.041 119.636 209.166 122.201 211.365 125.491C213.564 128.782 214.737 132.651 214.737 136.608C214.737 141.913 212.63 147.002 208.88 150.754C205.129 154.506 200.042 156.615 194.736 156.617V156.617ZM245.517 293.767L233.81 190.327H276.663C276.937 140.252 258.273 91.9245 224.413 55.0324C248.544 63.1056 269.795 78.0465 285.558 98.0224C301.321 117.998 310.911 142.141 313.152 167.488C315.393 192.835 310.187 218.286 298.173 240.717C286.158 263.149 267.858 281.586 245.517 293.767V293.767Z" fill="#31A3DD"/>
<path d="M464.601 42.1609L486.998 192.834H446.968L444.862 165.754H430.853L428.498 192.834H388L407.982 42.1609H464.601ZM443.836 139.044C441.854 121.977 439.867 100.882 437.874 75.7608C433.881 104.611 431.373 125.706 430.351 139.044H443.836Z" fill="#31A3DD"/>
<path d="M493.655 42.1609H533.105C543.767 42.1609 551.97 42.9993 557.713 44.6763C563.457 46.3533 567.768 48.7731 570.647 51.9358C573.575 55.1852 575.597 59.148 576.509 63.4263C577.535 67.9276 578.046 74.8929 578.042 84.3221V97.4454C578.042 107.059 577.05 114.07 575.064 118.479C573.079 122.889 569.435 126.268 564.133 128.618C558.835 130.979 551.904 132.16 543.341 132.16H532.823V192.839H493.666L493.655 42.1609ZM532.812 67.9442V106.283C533.915 106.349 534.892 106.376 535.697 106.376C539.293 106.376 541.789 105.492 543.186 103.723C544.584 101.954 545.282 98.2766 545.282 92.6904V80.3173C545.282 75.1687 544.475 71.8184 542.861 70.2665C541.247 68.7146 537.901 67.9405 532.823 67.9442H532.812Z" fill="#31A3DD"/>
<path d="M589.304 42.1609H628.755C639.417 42.1609 647.62 42.9993 653.364 44.6763C659.107 46.3533 663.418 48.7731 666.297 51.9358C669.227 55.1838 671.249 59.1472 672.159 63.4263C673.185 67.9276 673.696 74.8929 673.693 84.3221V97.4454C673.693 107.059 672.702 114.07 670.72 118.479C668.738 122.889 665.092 126.268 659.783 128.618C654.481 130.979 647.55 132.16 638.991 132.16H628.473V192.839H589.316L589.304 42.1609ZM628.462 67.9442V106.283C629.565 106.349 630.542 106.376 631.347 106.376C634.943 106.376 637.441 105.492 638.842 103.723C640.243 101.954 640.94 98.2766 640.932 92.6904V80.3173C640.932 75.1687 640.125 71.8184 638.511 70.2665C636.897 68.7146 633.551 67.9405 628.473 67.9442H628.462Z" fill="#31A3DD"/>
<path d="M724.129 42.1609V162.681H747.949V192.834H684.954V42.1609H724.129Z" fill="#31A3DD"/>
<path d="M840.902 42.1609L812.317 138.299V192.834H776.032V138.299L748.506 42.1609H784.493C790.115 71.5812 793.286 91.3738 794.006 101.539C796.176 85.464 799.812 65.6714 804.915 42.1609H840.902Z" fill="#31A3DD"/>
<path d="M847.614 42.1609H886.695C899.038 42.1609 908.39 43.1225 914.751 45.0459C921.111 46.9693 926.239 50.8546 930.132 56.7019C934.037 62.5602 935.991 72.0005 935.995 85.0227C935.995 93.8267 934.614 99.9646 931.853 103.436C929.092 106.908 923.648 109.574 915.523 111.435C924.579 113.48 930.719 116.878 933.943 121.629C937.168 126.38 938.782 133.66 938.786 143.468V157.435C938.786 167.611 937.622 175.15 935.295 180.052C934.228 182.401 932.691 184.505 930.779 186.235C928.866 187.964 926.619 189.283 924.176 190.109C919.091 191.907 908.669 192.806 892.91 192.806H847.614V42.1609ZM886.772 67.9442V101.445C888.449 101.382 889.75 101.351 890.677 101.351C894.526 101.351 896.977 100.406 898.028 98.5156C899.08 96.6253 899.608 91.212 899.611 82.2756C899.611 77.5573 899.177 74.2475 898.31 72.3462C897.442 70.4449 896.31 69.2497 894.912 68.7606C893.53 68.2825 890.816 68.0104 886.772 67.9442ZM886.772 124.9V167.056C892.287 166.868 895.808 166 897.334 164.452C898.859 162.904 899.619 159.088 899.611 153.006V138.95C899.611 132.496 898.929 128.587 897.565 127.223C896.201 125.858 892.603 125.084 886.772 124.9Z" fill="#31A3DD"/>
<path d="M952.833 42.1609H992.289C1002.95 42.1609 1011.15 42.9993 1016.9 44.6763C1022.64 46.3533 1026.95 48.7731 1029.83 51.9358C1032.75 55.1865 1034.77 59.1492 1035.68 63.4263C1036.7 67.9276 1037.21 74.8929 1037.22 84.3221V97.4454C1037.22 107.059 1036.22 114.07 1034.24 118.479C1032.25 122.889 1028.61 126.268 1023.31 128.618C1018 130.979 1011.07 132.16 1002.51 132.16H991.996V192.839H952.838L952.833 42.1609ZM991.991 67.9442V106.283C993.094 106.349 994.07 106.376 994.875 106.376C998.471 106.376 1000.97 105.492 1002.36 103.723C1003.76 101.954 1004.46 98.2766 1004.46 92.6904V80.3173C1004.46 75.1687 1003.65 71.8184 1002.04 70.2665C1000.43 68.7146 997.081 67.9405 992.007 67.9442H991.991Z" fill="#31A3DD"/>
<path d="M1137.99 130.389C1137.99 145.526 1137.64 156.244 1136.92 162.544C1136.22 168.935 1133.81 175.021 1129.96 180.168C1126.11 185.315 1120.95 189.336 1115.01 191.813C1108.63 194.604 1101.18 196 1092.68 196C1084.62 196 1077.38 194.682 1070.96 192.045C1064.96 189.644 1059.71 185.68 1055.76 180.567C1051.81 175.453 1049.3 169.375 1048.49 162.963C1047.75 156.759 1047.39 145.901 1047.39 130.389V104.611C1047.39 89.4743 1047.74 78.7561 1048.46 72.4565C1049.14 66.215 1051.45 60.2625 1055.16 55.1904C1058.91 49.983 1063.98 45.9818 1070.37 43.1869C1076.76 40.392 1084.2 38.9963 1092.7 39C1100.76 39 1108 40.3184 1114.42 42.9552C1120.42 45.3576 1125.67 49.321 1129.62 54.4345C1133.57 59.548 1136.08 65.6256 1136.9 72.0373C1137.63 78.245 1138 89.0937 1138 104.584L1137.99 130.389ZM1098.84 80.8799C1098.84 73.8668 1098.45 69.3839 1097.67 67.4311C1096.9 65.4783 1095.3 64.5001 1092.88 64.4964C1091.96 64.4543 1091.04 64.6511 1090.22 65.0676C1089.4 65.4842 1088.69 66.1064 1088.18 66.874C1087.08 68.4516 1086.53 73.1203 1086.53 80.8799V151.235C1086.53 159.984 1086.88 165.383 1087.6 167.431C1088.31 169.479 1089.96 170.502 1092.56 170.498C1095.23 170.498 1096.94 169.319 1097.68 166.962C1098.42 164.605 1098.79 158.991 1098.78 150.121L1098.84 80.8799Z" fill="#31A3DD"/>
<path d="M384.226 245.541H410.722V317H428.809V245.541H455.305V230.455H384.226V245.541ZM466.672 317H484.674V252.091H466.672V317ZM475.716 243.724C481.082 243.724 485.477 239.625 485.477 234.596C485.477 229.609 481.082 225.51 475.716 225.51C470.391 225.51 465.996 229.609 465.996 234.596C465.996 239.625 470.391 243.724 475.716 243.724ZM499.095 317H517.097V278.038C517.097 270.854 521.661 266.078 527.662 266.078C533.578 266.078 537.55 270.135 537.55 276.516V317H555.003V277.362C555.003 270.642 558.849 266.078 565.399 266.078C571.146 266.078 575.456 269.67 575.456 276.897V317H593.416V273.347C593.416 259.275 585.049 251.246 572.963 251.246C563.455 251.246 556.06 256.105 553.397 263.543H552.721C550.65 256.021 544.016 251.246 535.099 251.246C526.352 251.246 519.717 255.894 517.013 263.543H516.252V252.091H499.095V317ZM637.217 318.268C653.275 318.268 664.093 310.45 666.629 298.406L649.979 297.308C648.162 302.252 643.514 304.83 637.513 304.83C628.512 304.83 622.807 298.871 622.807 289.194V289.152H667.009V284.207C667.009 262.148 653.656 251.246 636.499 251.246C617.398 251.246 605.016 264.811 605.016 284.841C605.016 305.421 617.229 318.268 637.217 318.268ZM622.807 277.995C623.187 270.6 628.808 264.684 636.794 264.684C644.612 264.684 650.021 270.262 650.064 277.995H622.807ZM703.341 245.541H729.837V317H747.924V245.541H774.42V230.455H703.341V245.541ZM779.047 317H797.049V280.277C797.049 272.29 802.881 266.797 810.826 266.797C813.319 266.797 816.742 267.219 818.432 267.769V251.795C816.826 251.415 814.587 251.161 812.77 251.161C805.501 251.161 799.543 255.387 797.176 263.416H796.5V252.091H779.047V317ZM844.389 318.225C853.982 318.225 860.194 314.042 863.364 307.999H863.871V317H880.943V273.22C880.943 257.754 867.843 251.246 853.391 251.246C837.839 251.246 827.613 258.683 825.12 270.516L841.769 271.868C842.995 267.558 846.84 264.388 853.306 264.388C859.434 264.388 862.941 267.473 862.941 272.798V273.051C862.941 277.235 858.504 277.784 847.221 278.883C834.374 280.066 822.838 284.376 822.838 298.871C822.838 311.718 832.008 318.225 844.389 318.225ZM849.545 305.801C844.009 305.801 840.037 303.224 840.037 298.279C840.037 293.208 844.22 290.715 850.559 289.828C854.489 289.278 860.913 288.349 863.068 286.912V293.8C863.068 300.604 857.447 305.801 849.545 305.801ZM924.237 318.268C941.521 318.268 952.381 308.126 953.226 293.208H936.238C935.182 300.139 930.618 304.027 924.448 304.027C916.039 304.027 910.587 296.969 910.587 284.545C910.587 272.29 916.081 265.276 924.448 265.276C931.041 265.276 935.266 269.628 936.238 276.094H953.226C952.466 261.092 941.098 251.246 924.152 251.246C904.46 251.246 892.29 264.895 892.29 284.799C892.29 304.534 904.249 318.268 924.237 318.268ZM964.752 317H982.754V296.378L987.614 290.842L1005.32 317H1026.41L1001.09 280.193L1025.18 252.091H1004.52L983.726 276.728H982.754V230.455H964.752V317ZM1060.92 318.268C1076.98 318.268 1087.8 310.45 1090.33 298.406L1073.68 297.308C1071.87 302.252 1067.22 304.83 1061.22 304.83C1052.22 304.83 1046.51 298.871 1046.51 289.194V289.152H1090.71V284.207C1090.71 262.148 1077.36 251.246 1060.2 251.246C1041.1 251.246 1028.72 264.811 1028.72 284.841C1028.72 305.421 1040.93 318.268 1060.92 318.268ZM1046.51 277.995C1046.89 270.6 1052.51 264.684 1060.5 264.684C1068.32 264.684 1073.73 270.262 1073.77 277.995H1046.51ZM1102.46 317H1120.46V280.277C1120.46 272.29 1126.3 266.797 1134.24 266.797C1136.73 266.797 1140.16 267.219 1141.85 267.769V251.795C1140.24 251.415 1138 251.161 1136.18 251.161C1128.92 251.161 1122.96 255.387 1120.59 263.416H1119.92V252.091H1102.46V317Z" fill="#72838C"/>
</svg>
